<?xml version="1.0" standalone="no"?><!DOCTYPE svg PUBLIC "-//W3C//DTD SVG 1.1//EN" "http://www.w3.org/Graphics/SVG/1.1/DTD/svg11.dtd"><svg t="1695912309179" class="icon" viewBox="0 0 1024 1024" version="1.1" xmlns="http://www.w3.org/2000/svg" p-id="4883" xmlns:xlink="http://www.w3.org/1999/xlink" width="32" height="32"><path d="M735.5 866.9H295.7c-77.7 0-140.9-63.2-140.9-140.9V377.7c0-12.6 10.2-22.8 22.8-22.8s22.8 10.2 22.8 22.8V726c0 52.5 42.7 95.3 95.3 95.3h439.8c52.5 0 95.3-42.7 95.3-95.3V400.5H282.5c-12.6 0-22.8-10.2-22.8-22.8s10.2-22.8 22.8-22.8h593.9V726c0 77.7-63.2 140.9-140.9 140.9z" p-id="4884"></path><path d="M224.9 729.2V432.8h581.5v296.4c0 37.4-30.3 67.7-67.7 67.7H292.5c-37.3-0.1-67.6-30.4-67.6-67.7z" fill="#F4A651" p-id="4885"></path><path d="M876.4 399.5H282.5c-12.6 0-22.8-10.2-22.8-22.8s10.2-22.8 22.8-22.8h548.3v-66.7c0-36.8-29.9-66.7-66.7-66.7H267.2c-36.8 0-66.7 29.9-66.7 66.7v89.5c0 12.6-10.2 22.8-22.8 22.8s-22.8-10.2-22.8-22.8v-89.5c0-61.9 50.4-112.3 112.3-112.3h496.9c61.9 0 112.3 50.4 112.3 112.3v112.3z" p-id="4886"></path><path d="M295.6 537.1m-29.6 0a29.6 29.6 0 1 0 59.2 0 29.6 29.6 0 1 0-59.2 0Z" fill="#FFEB99" p-id="4887"></path><path d="M586.9 537.1m-29.6 0a29.6 29.6 0 1 0 59.2 0 29.6 29.6 0 1 0-59.2 0Z" fill="#FFEB99" p-id="4888"></path><path d="M441.2 537.1m-29.6 0a29.6 29.6 0 1 0 59.2 0 29.6 29.6 0 1 0-59.2 0Z" fill="#FFEB99" p-id="4889"></path><path d="M732.5 537.1m-29.6 0a29.6 29.6 0 1 0 59.2 0 29.6 29.6 0 1 0-59.2 0Z" fill="#FFEB99" p-id="4890"></path><path d="M295.6 690.6m-29.6 0a29.6 29.6 0 1 0 59.2 0 29.6 29.6 0 1 0-59.2 0Z" fill="#FFEB99" p-id="4891"></path><path d="M586.9 690.6m-29.6 0a29.6 29.6 0 1 0 59.2 0 29.6 29.6 0 1 0-59.2 0Z" fill="#FFEB99" p-id="4892"></path><path d="M441.2 690.6m-29.6 0a29.6 29.6 0 1 0 59.2 0 29.6 29.6 0 1 0-59.2 0Z" fill="#FFEB99" p-id="4893"></path><path d="M732.5 690.6m-29.6 0a29.6 29.6 0 1 0 59.2 0 29.6 29.6 0 1 0-59.2 0Z" fill="#FFEB99" p-id="4894"></path><path d="M339.3 254.1h-1.6c-12.6 0-22.8-10.2-22.8-22.8v-78.4c0-12.6 10.2-22.8 22.8-22.8h1.6c12.6 0 22.8 10.2 22.8 22.8v78.4c0 12.6-10.2 22.8-22.8 22.8zM671.4 254.1h-1.6c-12.6 0-22.8-10.2-22.8-22.8v-78.4c0-12.6 10.2-22.8 22.8-22.8h1.6c12.6 0 22.8 10.2 22.8 22.8v78.4c0 12.6-10.2 22.8-22.8 22.8z" p-id="4895"></path></svg>