<?xml version="1.0" standalone="no"?><!DOCTYPE svg PUBLIC "-//W3C//DTD SVG 1.1//EN" "http://www.w3.org/Graphics/SVG/1.1/DTD/svg11.dtd"><svg t="1695986360939" class="icon" viewBox="0 0 1024 1024" version="1.1" xmlns="http://www.w3.org/2000/svg" p-id="4019" xmlns:xlink="http://www.w3.org/1999/xlink" width="32" height="32"><path d="M563.1 557.6m-306 0a306 306 0 1 0 612 0 306 306 0 1 0-612 0Z" fill="#25B195" p-id="4020"></path><path d="M524 890.6c-49.6 0-97.8-9.7-143.1-28.9-43.8-18.5-83.1-45-116.9-78.8-33.8-33.8-60.3-73.1-78.8-116.9-19.2-45.3-28.9-93.5-28.9-143.1s9.7-97.8 28.9-143.1c18.5-43.8 45-83.1 78.8-116.9 33.8-33.8 73.1-60.3 116.9-78.8 45.3-19.2 93.5-28.9 143.1-28.9s97.8 9.7 143.1 28.9c43.8 18.5 83.1 45 116.9 78.8 33.8 33.8 60.3 73.1 78.8 116.9 19.2 45.3 28.9 93.5 28.9 143.1S882 620.7 862.8 666c-18.5 43.8-45 83.1-78.8 116.9-33.8 33.8-73.1 60.3-116.9 78.8-45.3 19.2-93.4 28.9-143.1 28.9z m0-694.4c-180.2 0-326.7 146.6-326.7 326.7S343.9 849.6 524 849.6c180.2 0 326.7-146.6 326.7-326.7S704.2 196.2 524 196.2z" fill="#666767" p-id="4021"></path><path d="M502.1 604.7h-4.4c-10.5 0-19-8.5-19-19v-1.9c0-17.1 3.4-31.7 10.2-44 6.8-12.3 19-25.2 36.5-38.9 17.2-13.3 29.5-25.8 36.9-37.4 7.4-11.6 11.1-25 11.1-40.1 0-16.1-5.7-29.3-17.2-39.7-11.4-10.4-27-15.6-46.6-15.6-19.4 0-37.3 4.6-53.8 13.8-12.6 7-28.1-2.3-28.1-16.7v-0.5c0-7 3.9-13.4 10-16.8 24.5-13.2 50.7-19.8 78.6-19.8 31.7 0 56.9 8.3 75.6 25 18.8 16.6 28.1 38.5 28.1 65.4 0 18.8-4.4 36-13.2 51.4-8.8 15.4-23.5 31.7-44.1 48.7-16.6 13.8-27.7 24.8-33.4 32.9-5.7 8.1-8.5 19.5-8.5 34.1 0.3 10.6-8.2 19.1-18.7 19.1z m-2.4 51c8.6 0 16 3 22.2 9 6.2 6 9.3 13.3 9.3 21.9 0 8.8-3.1 16.1-9.3 22-6.2 5.9-13.6 8.9-22.2 8.9-8.3 0-15.5-2.9-21.7-8.8-6.2-5.8-9.3-13.2-9.3-22.2 0-8.8 3-16.1 9.1-22 6.1-5.9 13.4-8.8 21.9-8.8z" fill="#666767" p-id="4022"></path></svg>