<?xml version="1.0" standalone="no"?><!DOCTYPE svg PUBLIC "-//W3C//DTD SVG 1.1//EN" "http://www.w3.org/Graphics/SVG/1.1/DTD/svg11.dtd"><svg t="1695912290451" class="icon" viewBox="0 0 1025 1024" version="1.1" xmlns="http://www.w3.org/2000/svg" p-id="3841" xmlns:xlink="http://www.w3.org/1999/xlink" width="32.03125" height="32"><path d="M963.584 581.632V174.08c0-12.288-10.24-22.528-22.528-22.528H457.728c-19.456 0-38.912-9.216-50.176-25.6l-34.816-46.08c-8.192-11.264-21.504-17.408-35.84-17.408H122.88c-12.288 0-22.528 10.24-22.528 22.528v760.832c0 12.288 10.24 22.528 22.528 22.528h796.672l44.032-286.72z" fill="#1651E5" opacity=".3" p-id="3842"></path><path d="M909.312 843.776H91.136c-16.384 0-30.72-13.312-30.72-30.72V52.224c0-16.384 13.312-30.72 30.72-30.72h214.016c16.384 0 32.768 8.192 41.984 21.504l34.816 46.08c10.24 14.336 26.624 22.528 44.032 22.528h483.328c16.384 0 30.72 13.312 30.72 30.72v670.72c-1.024 16.384-14.336 30.72-30.72 30.72zM91.136 38.912c-8.192 0-14.336 6.144-14.336 14.336v760.832c0 8.192 6.144 14.336 14.336 14.336h818.176c8.192 0 14.336-6.144 14.336-14.336V142.336c0-8.192-6.144-14.336-14.336-14.336H425.984c-22.528 0-44.032-10.24-57.344-28.672l-34.816-46.08c-7.168-9.216-17.408-14.336-28.672-14.336H91.136z" fill="#1651E5" p-id="3843"></path><path d="M889.856 968.704H109.568c-13.312 0-23.552-10.24-23.552-23.552L8.192 419.84c0-13.312 10.24-23.552 23.552-23.552h936.96c13.312 0 23.552 10.24 23.552 23.552l-77.824 526.336c-1.024 12.288-11.264 22.528-24.576 22.528z" fill="#FFFFFF" p-id="3844"></path><path d="M922.624 1001.472H142.336c-13.312 0-23.552-10.24-23.552-23.552L40.96 451.584c0-13.312 10.24-23.552 23.552-23.552h936.96c13.312 0 23.552 10.24 23.552 23.552l-77.824 526.336c-1.024 13.312-11.264 23.552-24.576 23.552z" fill="#1651E5" opacity=".1" p-id="3845"></path><path d="M463.872 631.808h327.68v210.944h-327.68z" fill="#FFFFFF" p-id="3846"></path><path d="M799.744 850.944H455.68V623.616h344.064v227.328z m-327.68-16.384h311.296v-194.56H472.064v194.56z" fill="#1651E5" p-id="3847"></path><path d="M612.352 706.56h-84.992c-4.096 0-8.192-4.096-8.192-8.192s4.096-8.192 8.192-8.192h84.992c4.096 0 8.192 4.096 8.192 8.192s-3.072 8.192-8.192 8.192zM697.344 706.56h-36.864c-4.096 0-8.192-4.096-8.192-8.192s4.096-8.192 8.192-8.192h36.864c4.096 0 8.192 4.096 8.192 8.192s-3.072 8.192-8.192 8.192zM734.208 779.264H527.36c-4.096 0-8.192-4.096-8.192-8.192s4.096-8.192 8.192-8.192h207.872c4.096 0 8.192 4.096 8.192 8.192s-4.096 8.192-9.216 8.192z" fill="#1651E5" p-id="3848"></path><path d="M112.64 315.392h774.144v79.872H112.64z" fill="#FFFFFF" p-id="3849"></path><path d="M894.976 404.48H104.448V307.2h790.528v97.28z m-774.144-16.384h757.76v-64.512h-757.76v64.512z" fill="#058007" p-id="3850"></path><path d="M132.096 270.336h736.256v45.056H132.096z" fill="#FFFFFF" p-id="3851"></path><path d="M875.52 323.584H123.904v-61.44h751.616v61.44zM140.288 307.2H860.16v-28.672H140.288V307.2z" fill="#058007" p-id="3852"></path><path d="M156.672 219.136h686.08v52.224h-686.08z" fill="#FFFFFF" p-id="3853"></path><path d="M850.944 278.528H148.48v-67.584H849.92v67.584z m-686.08-16.384h669.696v-35.84H164.864v35.84z" fill="#058007" p-id="3854"></path><path d="M889.856 976.896H109.568c-17.408 0-30.72-13.312-31.744-30.72L0 419.84c0-17.408 14.336-31.744 31.744-31.744h936.96c17.408 0 31.744 14.336 31.744 31.744v1.024L921.6 946.176c0 17.408-14.336 30.72-31.744 30.72zM16.384 418.816l77.824 526.336c0 8.192 7.168 15.36 15.36 15.36h780.288c8.192 0 15.36-7.168 15.36-15.36v-1.024L983.04 418.816c0-8.192-7.168-14.336-15.36-14.336H31.744c-8.192 0-15.36 6.144-15.36 14.336z" fill="#1651E5" p-id="3855"></path></svg>