<?xml version="1.0" standalone="no"?><!DOCTYPE svg PUBLIC "-//W3C//DTD SVG 1.1//EN" "http://www.w3.org/Graphics/SVG/1.1/DTD/svg11.dtd"><svg t="1695990439778" class="icon" viewBox="0 0 1024 1024" version="1.1" xmlns="http://www.w3.org/2000/svg" p-id="6139" xmlns:xlink="http://www.w3.org/1999/xlink" width="32" height="32"><path d="M405.3 291.3h156.6c13.4 0 24.3-10.9 24.3-24.3s-10.9-24.3-24.3-24.3H405.3c-13.4 0-24.3 10.9-24.3 24.3-0.1 13.3 10.9 24.3 24.3 24.3zM630.9 350.3H405.3c-13.4 0-24.3 10.9-24.3 24.3s10.9 24.3 24.3 24.3h225.6c13.4 0 24.3-10.9 24.3-24.3s-10.9-24.3-24.3-24.3z" fill="#FF4E7D" p-id="6140"></path><path d="M847.1 252.8l-190.7-109c-15.4-8.4-32.9-13.8-50.5-15.6-3.7-0.5-7.4-0.7-11-0.7H189.4c-28.7 0-52 23.3-52 52v667.3c0 28.7 23.3 52 52 52h647.3c28.7 0 52-23.3 52-52v-524c0-29.3-15.9-56.1-41.6-70zM713.8 462.1c0 1.8-1.5 3.3-3.3 3.3H331.8c-1.8 0-3.3-1.5-3.3-3.3v-286h263.8c2.6 0 5.2 0.1 7.8 0.4 4.4 0.6 8.5 1.8 12.3 3.8l99.2 49.9 2.2 231.9zM186.1 179.4c0-1.8 1.5-3.3 3.3-3.3h90.4v286c0 28.7 23.3 52 52 52h378.7c28.7 0 52-23.3 52-52L760.2 256l63.7 39.5c10 5.4 16.2 15.9 16.2 27.2v524c0 1.8-1.5 3.3-3.3 3.3H189.4c-1.8 0-3.3-1.5-3.3-3.3V179.4z" fill="#4E30DC" p-id="6141"></path></svg>